<?xml version="1.0" encoding="UTF-8" standalone="no"?>
<!DOCTYPE svg PUBLIC "-//W3C//DTD SVG 1.1//EN" "http://www.w3.org/Graphics/SVG/1.1/DTD/svg11.dtd">
<!-- Created with Vectornator (http://vectornator.io/) -->
<svg height="38.13540774458465mm" stroke-miterlimit="10" style="fill-rule:nonzero;clip-rule:evenodd;stroke-linecap:round;stroke-linejoin:round;" version="1.1" viewBox="0 0 285.689 108.114" width="100.7721120206105mm" xml:space="preserve" xmlns="http://www.w3.org/2000/svg" xmlns:xlink="http://www.w3.org/1999/xlink">
<defs>
<linearGradient gradientTransform="matrix(1 0 0 1 -441.724 -226.331)" gradientUnits="userSpaceOnUse" id="LinearGradient" x1="460.174" x2="711.999" y1="297.262" y2="297.262">
<stop offset="0" stop-color="#33e8ff"/>
<stop offset="1" stop-color="#674a7a"/>
</linearGradient>
<linearGradient gradientTransform="matrix(1 0 0 1 -499.994 -235.274)" gradientUnits="userSpaceOnUse" id="LinearGradient_2" x1="685.111" x2="759.299" y1="286.984" y2="286.984">
<stop offset="0" stop-color="#33fdff"/>
<stop offset="1" stop-color="#3caecd"/>
</linearGradient>
<filter color-interpolation-filters="sRGB" filterUnits="userSpaceOnUse" height="114.687" id="Filter" width="86.625" x="183.765" y="-0.856751">
<feDropShadow dx="1.33564" dy="6.8714" flood-color="#5337d9" flood-opacity="0.2" in="SourceGraphic" result="Shadow" stdDeviation="4.5"/>
</filter>
</defs>
<clipPath id="ArtboardFrame">
<rect height="108.114" width="285.689" x="0" y="0"/>
</clipPath>
<g clip-path="url(#ArtboardFrame)" id="Layer-1">
<g opacity="1">
<g opacity="1">
<g fill="url(#LinearGradient)" opacity="1" stroke="none">
<path d="M46.3623 68.9061L46.3623 72.0301C46.3623 73.5921 46.0665 75.0713 45.4748 76.4676C44.8831 77.864 44.0666 79.1065 43.0253 80.1951C41.984 81.2838 40.7651 82.1476 39.3688 82.7866C37.9725 83.4256 36.4696 83.7451 34.8603 83.7451C33.4876 83.7451 32.0913 83.5558 30.6713 83.1771C29.2513 82.7985 27.9733 82.1358 26.8373 81.1891C25.7013 80.2425 24.7665 79.0236 24.0328 77.5326C23.2991 76.0416 22.9323 74.1365 22.9323 71.8171L22.9323 43.9851C22.9323 42.3285 23.2163 40.7901 23.7843 39.3701C24.3523 37.9501 25.157 36.7195 26.1983 35.6781C27.2396 34.6368 28.4821 33.8203 29.9258 33.2286C31.3695 32.637 32.967 32.3411 34.7183 32.3411C38.1263 32.3411 40.8953 33.4535 43.0253 35.6781C44.0666 36.7668 44.8831 38.0566 45.4748 39.5476C46.0665 41.0386 46.3623 42.6598 46.3623 44.4111L46.3623 47.2511L39.1203 47.2511L39.1203 44.8371C39.1203 43.4171 38.718 42.1865 37.9133 41.1451C37.1086 40.1038 36.02 39.5831 34.6473 39.5831C32.8486 39.5831 31.6535 40.1393 31.0618 41.2516C30.4701 42.364 30.1743 43.7721 30.1743 45.4761L30.1743 71.3201C30.1743 72.7875 30.4938 74.0181 31.1328 75.0121C31.7718 76.0061 32.9196 76.5031 34.5763 76.5031C35.0496 76.5031 35.5585 76.4203 36.1028 76.2546C36.6471 76.089 37.156 75.8168 37.6293 75.4381C38.0553 75.0595 38.4103 74.5388 38.6943 73.8761C38.9783 73.2135 39.1203 72.3851 39.1203 71.3911L39.1203 68.9061L46.3623 68.9061Z"/>
<path d="M82.6853 32.7671L82.6853 71.9591C82.6853 73.6158 82.3895 75.1423 81.7978 76.5386C81.2061 77.935 80.366 79.1775 79.2773 80.2661C78.1886 81.3548 76.9343 82.2068 75.5143 82.8221C74.0943 83.4375 72.5796 83.7451 70.9703 83.7451C69.361 83.7451 67.8581 83.4375 66.4618 82.8221C65.0655 82.2068 63.823 81.3548 62.7343 80.2661C61.6456 79.1775 60.7936 77.935 60.1783 76.5386C59.563 75.1423 59.2553 73.6158 59.2553 71.9591L59.2553 32.7671L66.4973 32.7671L66.4973 71.2491C66.4973 73.0478 66.9233 74.3731 67.7753 75.2251C68.6273 76.0771 69.6923 76.5031 70.9703 76.5031C72.2483 76.5031 73.3133 76.0771 74.1653 75.2251C75.0173 74.3731 75.4433 73.0478 75.4433 71.2491L75.4433 32.7671L82.6853 32.7671ZM62.0243 29.6431L62.0243 22.4011L68.4143 22.4011L68.4143 29.6431L62.0243 29.6431ZM73.5263 29.6431L73.5263 22.4011L79.9163 22.4011L79.9163 29.6431L73.5263 29.6431Z"/>
<path d="M101.258 83.3191L101.258 39.5831L92.8803 39.5831L92.8803 32.7671L116.878 32.7671L116.878 39.5831L108.5 39.5831L108.5 83.3191L101.258 83.3191Z"/>
<path d="M150.503 32.7671L150.503 71.9591C150.503 73.6158 150.207 75.1423 149.616 76.5386C149.024 77.935 148.184 79.1775 147.095 80.2661C146.007 81.3548 144.752 82.2068 143.332 82.8221C141.912 83.4375 140.398 83.7451 138.788 83.7451C137.179 83.7451 135.676 83.4375 134.28 82.8221C132.883 82.2068 131.641 81.3548 130.552 80.2661C129.464 79.1775 128.612 77.935 127.996 76.5386C127.381 75.1423 127.073 73.6158 127.073 71.9591L127.073 32.7671L134.315 32.7671L134.315 71.2491C134.315 73.0478 134.741 74.3731 135.593 75.2251C136.445 76.0771 137.51 76.5031 138.788 76.5031C140.066 76.5031 141.131 76.0771 141.983 75.2251C142.835 74.3731 143.261 73.0478 143.261 71.2491L143.261 32.7671L150.503 32.7671ZM129.842 29.6431L129.842 22.4011L136.232 22.4011L136.232 29.6431L129.842 29.6431ZM141.344 29.6431L141.344 22.4011L147.734 22.4011L147.734 29.6431L141.344 29.6431Z"/>
<path d="M164.319 83.3191L164.319 32.7671L171.561 32.7671L171.561 76.0771L185.903 76.0771L185.903 83.3191L164.319 83.3191Z"/>
<path d="M221.019 32.7671L221.019 71.9591C221.019 73.6158 220.723 75.1423 220.132 76.5386C219.54 77.935 218.7 79.1775 217.611 80.2661C216.523 81.3548 215.268 82.2068 213.848 82.8221C212.428 83.4375 210.914 83.7451 209.304 83.7451C207.695 83.7451 206.192 83.4375 204.796 82.8221C203.399 82.2068 202.157 81.3548 201.068 80.2661C199.98 79.1775 199.128 77.935 198.512 76.5386C197.897 75.1423 197.589 73.6158 197.589 71.9591L197.589 32.7671L204.831 32.7671L204.831 71.2491C204.831 73.0478 205.257 74.3731 206.109 75.2251C206.961 76.0771 208.026 76.5031 209.304 76.5031C210.582 76.5031 211.647 76.0771 212.499 75.2251C213.351 74.3731 213.777 73.0478 213.777 71.2491L213.777 32.7671L221.019 32.7671Z"/>
</g>
<path d="M215.18 80.9594L247.805 80.9594C251.055 80.9594 253.534 81.626 255.242 82.9594C256.95 84.2927 257.805 86.1052 257.805 88.3969C257.805 90.4385 257.127 92.1677 255.773 93.5844C254.419 95.001 252.367 95.7094 249.617 95.7094L203.617 95.7094C200.492 95.7094 198.055 94.8448 196.305 93.1156C194.555 91.3864 193.68 89.3552 193.68 87.0219C193.68 85.5219 194.242 83.5323 195.367 81.0531C196.492 78.5739 197.721 76.626 199.055 75.2094C204.596 69.4594 209.596 64.5323 214.055 60.4281C218.513 56.3239 221.7 53.626 223.617 52.3344C227.034 49.9177 229.877 47.4906 232.148 45.0531C234.419 42.6156 236.148 40.1156 237.336 37.5531C238.523 34.9906 239.117 32.4802 239.117 30.0219C239.117 27.3552 238.482 24.9698 237.211 22.8656C235.94 20.7614 234.211 19.126 232.023 17.9594C229.836 16.7927 227.45 16.2094 224.867 16.2094C219.409 16.2094 215.117 18.6052 211.992 23.3969C211.575 24.0219 210.877 25.7302 209.898 28.5219C208.919 31.3135 207.815 33.4594 206.586 34.9594C205.357 36.4594 203.555 37.2094 201.18 37.2094C199.096 37.2094 197.367 36.5219 195.992 35.1469C194.617 33.7719 193.93 31.8969 193.93 29.5219C193.93 26.6469 194.575 23.6469 195.867 20.5219C197.159 17.3969 199.086 14.5635 201.648 12.0219C204.211 9.48019 207.461 7.4281 211.398 5.8656C215.336 4.3031 219.95 3.52185 225.242 3.52185C231.617 3.52185 237.055 4.52185 241.555 6.52185C244.471 7.85519 247.034 9.68852 249.242 12.0219C251.45 14.3552 253.169 17.0531 254.398 20.1156C255.627 23.1781 256.242 26.3552 256.242 29.6469C256.242 34.8135 254.961 39.5114 252.398 43.7406C249.836 47.9698 247.221 51.2823 244.555 53.6781C241.888 56.0739 237.419 59.8344 231.148 64.9594C224.877 70.0844 220.575 74.0635 218.242 76.8969C217.242 78.0219 216.221 79.376 215.18 80.9594Z" fill="url(#LinearGradient_2)" filter="url(#Filter)" stroke="none"/>
</g>
</g>
</g>
</svg>
